<svg xmlns="http://www.w3.org/2000/svg" width="35" height="42" fill="none"><path fill="#333" d="M35 30.45a61.14 61.14 0 0 1-.722 1.925 24.671 24.671 0 0 1-2.231 4.025c-1.181 1.684-2.144 2.844-2.888 3.478-1.137 1.05-2.384 1.597-3.697 1.619-.94 0-2.078-.263-3.412-.81-1.334-.546-2.56-.809-3.675-.809-1.181 0-2.428.263-3.784.81-1.357.546-2.428.83-3.26.853-1.268.043-2.515-.503-3.784-1.663-.81-.7-1.816-1.903-3.019-3.61-1.29-1.815-2.362-3.915-3.194-6.321C.437 27.344 0 24.828 0 22.4c0-2.778.613-5.184 1.816-7.197A10.583 10.583 0 0 1 5.6 11.375a10.047 10.047 0 0 1 5.119-1.444c1.006 0 2.319.307 3.96.919 1.64.613 2.69.919 3.15.919.35 0 1.508-.372 3.477-1.094 1.86-.678 3.435-.94 4.725-.831 3.5.284 6.125 1.662 7.875 4.134-3.128 1.903-4.681 4.55-4.637 7.963.022 2.646.984 4.856 2.887 6.606A8.897 8.897 0 0 0 35 30.45ZM26.206 0c.022.284.044.547.044.831 0 2.078-.766 4.025-2.275 5.819-1.838 2.144-4.047 3.369-6.431 3.172a8.525 8.525 0 0 1-.044-.788c0-1.99.875-4.134 2.406-5.884.766-.875 1.75-1.619 2.931-2.21 1.204-.568 2.32-.896 3.37-.94Z"/></svg>